<svg width="16" height="16" viewBox="0 0 16 16" fill="none" xmlns="http://www.w3.org/2000/svg">
<path d="M8 16C12.4183 16 16 12.4183 16 8C16 3.58172 12.4183 0 8 0C3.58172 0 0 3.58172 0 8C0 12.4183 3.58172 16 8 16Z" fill="#627EEA"/>
<path d="M8.24902 2V6.43496L11.9974 8.10994L8.24902 2Z" fill="white" fill-opacity="0.602"/>
<path d="M8.24906 2L4.5 8.10994L8.24906 6.43496V2Z" fill="white"/>
<path d="M8.24902 10.9837V13.9972L12 8.80762L8.24902 10.9837Z" fill="white" fill-opacity="0.602"/>
<path d="M8.24906 13.9972V10.9832L4.5 8.80762L8.24906 13.9972Z" fill="white"/>
<path d="M8.24902 10.286L11.9974 8.10955L8.24902 6.43555V10.286Z" fill="white" fill-opacity="0.2"/>
<path d="M4.5 8.10955L8.24906 10.286V6.43555L4.5 8.10955Z" fill="white" fill-opacity="0.602"/>
</svg>